<?xml version="1.0" encoding="utf-8"?>
<!-- Svg Vector Icons : http://www.onlinewebfonts.com/icon -->
<!DOCTYPE svg PUBLIC "-//W3C//DTD SVG 1.1//EN" "http://www.w3.org/Graphics/SVG/1.1/DTD/svg11.dtd">
<svg version="1.1" xmlns="http://www.w3.org/2000/svg" xmlns:xlink="http://www.w3.org/1999/xlink" x="0px" y="0px" viewBox="0 0 1000 1000" enable-background="new 0 0 1000 1000" xml:space="preserve">
<metadata> Svg Vector Icons : http://www.onlinewebfonts.com/icon </metadata>
<g><g><path d="M500,10C229.4,10,10,229.4,10,500c0,270.6,219.4,490,490,490c270.6,0,490-219.4,490-490C990,229.4,770.6,10,500,10z M500,125.3c49.9,0,90.4,40.6,90.4,90.4c0,49.9-40.6,90.4-90.4,90.4c-49.8,0-90.4-40.6-90.4-90.4C409.6,165.9,450.1,125.3,500,125.3z M619.9,859.2c0,8.5-6.9,15.4-15.4,15.4h-205c-8.5,0-15.4-6.9-15.4-15.4V786c0-8.5,6.9-15.4,15.4-15.4h39.7V426.2h-43.6c-8.5,0-15.4-6.9-15.4-15.4v-51.6c0-8.5,6.9-15.4,15.4-15.4h153.9c8.5,0,15.4,6.9,15.4,15.4v411.4h39.7c8.5,0,15.4,6.9,15.4,15.4L619.9,859.2L619.9,859.2z" fill="#666666" /></g><g></g><g></g><g></g><g></g><g></g><g></g><g></g><g></g><g></g><g></g><g></g><g></g><g></g><g></g><g></g></g>
</svg>